<?xml version="1.0" encoding="UTF-8"?>
<svg width="700pt" height="700pt" version="1.1" viewBox="0 0 700 700" xmlns="http://www.w3.org/2000/svg" xmlns:xlink="http://www.w3.org/1999/xlink">
 <g>
  <path d="m630 280c0-154.63-125.37-280-280-280s-280 125.37-280 280 125.37 280 280 280 280-125.37 280-280zm-525 0c0-135.11 109.92-245 245-245s245 109.89 245 245c0 135.08-109.92 245-245 245s-245-109.92-245-245zm245 0v-210c115.97 0 210 94.027 210 210zm-142.8-102.68-17.5 30.316-30.316-17.5 17.5-30.316zm285.61 205.32 17.5-30.285 30.316 17.5-17.5 30.285zm-215.16-262.94-30.316 17.5-17.5-30.316 30.316-17.5zm144.68 320.61 30.316-17.5 17.5 30.316-30.285 17.5zm-54.824 14.695v35l-35 0.035156v-35.035zm-89.859-14.695-17.5 30.316-30.316-17.465 17.535-30.352zm-70.441-57.664-30.316 17.535-17.535-30.285 30.352-17.535zm-32.199-85.141-35 0.035156-0.070312-35h35.07z"/>
  <use x="70" y="576.40625" xlink:href="#u"/>
  <use x="74.011719" y="576.40625" xlink:href="#d"/>
  <use x="76.710938" y="576.40625" xlink:href="#a"/>
  <use x="80.417969" y="576.40625" xlink:href="#k"/>
  <use x="84.109375" y="576.40625" xlink:href="#c"/>
  <use x="86.722656" y="576.40625" xlink:href="#a"/>
  <use x="90.433594" y="576.40625" xlink:href="#j"/>
  <use x="96.25" y="576.40625" xlink:href="#i"/>
  <use x="100.167969" y="576.40625" xlink:href="#h"/>
  <use x="105.636719" y="576.40625" xlink:href="#g"/>
  <use x="107.507812" y="576.40625" xlink:href="#f"/>
  <use x="110.75" y="576.40625" xlink:href="#b"/>
  <use x="114.507812" y="576.40625" xlink:href="#e"/>
  <use x="120.304687" y="576.40625" xlink:href="#t"/>
  <use x="124.109375" y="576.40625" xlink:href="#s"/>
  <use x="70" y="581.875" xlink:href="#r"/>
  <use x="72.378906" y="581.875" xlink:href="#d"/>
  <use x="75.078125" y="581.875" xlink:href="#b"/>
  <use x="78.832031" y="581.875" xlink:href="#q"/>
  <use x="86.4375" y="581.875" xlink:href="#c"/>
  <use x="89.050781" y="581.875" xlink:href="#p"/>
  <use x="92.941406" y="581.875" xlink:href="#a"/>
  <use x="98.554688" y="581.875" xlink:href="#o"/>
  <use x="103.132812" y="581.875" xlink:href="#b"/>
  <use x="106.890625" y="581.875" xlink:href="#n"/>
  <use x="110.785156" y="581.875" xlink:href="#e"/>
  <use x="116.582031" y="581.875" xlink:href="#m"/>
  <use x="120.589844" y="581.875" xlink:href="#d"/>
  <use x="123.285156" y="581.875" xlink:href="#b"/>
  <use x="127.042969" y="581.875" xlink:href="#l"/>
  <use x="128.917969" y="581.875" xlink:href="#a"/>
  <use x="132.625" y="581.875" xlink:href="#f"/>
  <use x="135.867188" y="581.875" xlink:href="#c"/>
 </g>
</svg>
